{
	"asset":{
		"generator":"Khronos glTF Blender I/O v4.3.47",
		"version":"2.0"
	},
	"scene":0,
	"scenes":[
		{
			"name":"Scene",
			"nodes":[
				0
			]
		}
	],
	"nodes":[
		{
			"mesh":0,
			"name":"Sphere.002",
			"rotation":[
				0,
				0.30745211243629456,
				0,
				0.9515635967254639
			],
			"translation":[
				2.987882614135742,
				3.1276745796203613,
				-2.0952794551849365
			]
		}
	],
	"materials":[
		{
			"doubleSided":true,
			"name":"Material.004",
			"pbrMetallicRoughness":{
				"baseColorFactor":[
					0.8000074625015259,
					0.01950567588210106,
					0.016651544719934464,
					1
				],
				"metallicFactor":0
			}
		},
		{
			"doubleSided":true,
			"name":"Material.003",
			"pbrMetallicRoughness":{
				"baseColorFactor":[
					0.05766037851572037,
					0.05766037851572037,
					0.05766037851572037,
					1
				],
				"metallicFactor":0
			}
		}
	],
	"meshes":[
		{
			"name":"Sphere.002",
			"primitives":[
				{
					"attributes":{
						"POSITION":0,
						"NORMAL":1,
						"TEXCOORD_0":2
					},
					"indices":3,
					"material":0
				},
				{
					"attributes":{
						"POSITION":4,
						"NORMAL":5,
						"TEXCOORD_0":6
					},
					"indices":7,
					"material":1
				}
			]
		}
	],
	"accessors":[
		{
			"bufferView":0,
			"componentType":5126,
			"count":828,
			"max":[
				1.0000001192092896,
				1,
				3.8512163162231445
			],
			"min":[
				-7.318868160247803,
				-7.753554344177246,
				-2.9754927158355713
			],
			"type":"VEC3"
		},
		{
			"bufferView":1,
			"componentType":5126,
			"count":828,
			"type":"VEC3"
		},
		{
			"bufferView":2,
			"componentType":5126,
			"count":828,
			"type":"VEC2"
		},
		{
			"bufferView":3,
			"componentType":5123,
			"count":3627,
			"type":"SCALAR"
		},
		{
			"bufferView":4,
			"componentType":5126,
			"count":370,
			"max":[
				-1.7114193439483643,
				-1.382633924484253,
				1.498765468597412
			],
			"min":[
				-5.1454691886901855,
				-5.029538631439209,
				-1.208611249923706
			],
			"type":"VEC3"
		},
		{
			"bufferView":5,
			"componentType":5126,
			"count":370,
			"type":"VEC3"
		},
		{
			"bufferView":6,
			"componentType":5126,
			"count":370,
			"type":"VEC2"
		},
		{
			"bufferView":7,
			"componentType":5123,
			"count":1467,
			"type":"SCALAR"
		}
	],
	"bufferViews":[
		{
			"buffer":0,
			"byteLength":9936,
			"byteOffset":0,
			"target":34962
		},
		{
			"buffer":0,
			"byteLength":9936,
			"byteOffset":9936,
			"target":34962
		},
		{
			"buffer":0,
			"byteLength":6624,
			"byteOffset":19872,
			"target":34962
		},
		{
			"buffer":0,
			"byteLength":7254,
			"byteOffset":26496,
			"target":34963
		},
		{
			"buffer":0,
			"byteLength":4440,
			"byteOffset":33752,
			"target":34962
		},
		{
			"buffer":0,
			"byteLength":4440,
			"byteOffset":38192,
			"target":34962
		},
		{
			"buffer":0,
			"byteLength":2960,
			"byteOffset":42632,
			"target":34962
		},
		{
			"buffer":0,
			"byteLength":2934,
			"byteOffset":45592,
			"target":34963
		}
	],
	"buffers":[
		{
			"byteLength":48528,
			"uri":"atom.bin"
		}
	]
}
